{
	"asset":{
		"generator":"Khronos glTF Blender I/O v4.1.62",
		"version":"2.0"
	},
	"scene":0,
	"scenes":[
		{
			"name":"Scene",
			"nodes":[
				0,
				1,
				2
			]
		}
	],
	"nodes":[
		{
			"mesh":0,
			"name":"\u30b3\u30f3\u30d9\u30a2\u30fc",
			"rotation":[
				0.7071067690849304,
				0,
				0,
				0.7071068286895752
			],
			"scale":[
				0.013000000268220901,
				0.013000000268220901,
				0.013000000268220901
			],
			"translation":[
				2,
				1,
				0
			]
		},
		{
			"mesh":1,
			"name":"\u30b3\u30f3\u30d9\u30a2\u30fc.001",
			"rotation":[
				0.7071067690849304,
				0,
				0,
				0.7071068286895752
			],
			"scale":[
				0.013000000268220901,
				0.013000000268220901,
				0.013000000268220901
			],
			"translation":[
				0,
				1,
				0
			]
		},
		{
			"mesh":2,
			"name":"\u30b3\u30f3\u30d9\u30a2\u30fc.002",
			"rotation":[
				0.7071067690849304,
				0,
				0,
				0.7071068286895752
			],
			"scale":[
				0.013000000268220901,
				0.013000000268220901,
				0.013000000268220901
			],
			"translation":[
				4,
				1,
				0
			]
		}
	],
	"materials":[
		{
			"doubleSided":true,
			"name":"colormap.011",
			"pbrMetallicRoughness":{
				"baseColorTexture":{
					"index":0
				},
				"metallicFactor":0,
				"roughnessFactor":0.5527864098548889
			}
		},
		{
			"doubleSided":true,
			"name":"colormap.012",
			"pbrMetallicRoughness":{
				"baseColorTexture":{
					"index":1
				},
				"metallicFactor":0,
				"roughnessFactor":0.5527864098548889
			}
		},
		{
			"doubleSided":true,
			"name":"colormap.051",
			"pbrMetallicRoughness":{
				"baseColorTexture":{
					"index":2
				},
				"metallicFactor":0,
				"roughnessFactor":0.5527864098548889
			}
		},
		{
			"doubleSided":true,
			"name":"colormap.001",
			"pbrMetallicRoughness":{
				"baseColorTexture":{
					"index":3
				},
				"metallicFactor":0,
				"roughnessFactor":0.5527864098548889
			}
		},
		{
			"doubleSided":true,
			"name":"colormap.002",
			"pbrMetallicRoughness":{
				"baseColorTexture":{
					"index":4
				},
				"metallicFactor":0,
				"roughnessFactor":0.5527864098548889
			}
		},
		{
			"doubleSided":true,
			"name":"colormap.003",
			"pbrMetallicRoughness":{
				"baseColorTexture":{
					"index":5
				},
				"metallicFactor":0,
				"roughnessFactor":0.5527864098548889
			}
		},
		{
			"doubleSided":true,
			"name":"colormap.004",
			"pbrMetallicRoughness":{
				"baseColorTexture":{
					"index":6
				},
				"metallicFactor":0,
				"roughnessFactor":0.5527864098548889
			}
		},
		{
			"doubleSided":true,
			"name":"colormap.005",
			"pbrMetallicRoughness":{
				"baseColorTexture":{
					"index":7
				},
				"metallicFactor":0,
				"roughnessFactor":0.5527864098548889
			}
		},
		{
			"doubleSided":true,
			"name":"colormap.006",
			"pbrMetallicRoughness":{
				"baseColorTexture":{
					"index":8
				},
				"metallicFactor":0,
				"roughnessFactor":0.5527864098548889
			}
		}
	],
	"meshes":[
		{
			"name":"Scene.017",
			"primitives":[
				{
					"attributes":{
						"POSITION":0,
						"NORMAL":1,
						"TEXCOORD_0":2
					},
					"indices":3,
					"material":0
				},
				{
					"attributes":{
						"POSITION":4,
						"NORMAL":5,
						"TEXCOORD_0":6
					},
					"indices":7,
					"material":1
				},
				{
					"attributes":{
						"POSITION":8,
						"NORMAL":9,
						"TEXCOORD_0":10
					},
					"indices":7,
					"material":2
				}
			]
		},
		{
			"name":"Scene.001",
			"primitives":[
				{
					"attributes":{
						"POSITION":11,
						"NORMAL":12,
						"TEXCOORD_0":13
					},
					"indices":3,
					"material":3
				},
				{
					"attributes":{
						"POSITION":14,
						"NORMAL":15,
						"TEXCOORD_0":16
					},
					"indices":7,
					"material":4
				},
				{
					"attributes":{
						"POSITION":17,
						"NORMAL":18,
						"TEXCOORD_0":19
					},
					"indices":7,
					"material":5
				}
			]
		},
		{
			"name":"Scene.002",
			"primitives":[
				{
					"attributes":{
						"POSITION":20,
						"NORMAL":21,
						"TEXCOORD_0":22
					},
					"indices":3,
					"material":6
				},
				{
					"attributes":{
						"POSITION":23,
						"NORMAL":24,
						"TEXCOORD_0":25
					},
					"indices":7,
					"material":7
				},
				{
					"attributes":{
						"POSITION":26,
						"NORMAL":27,
						"TEXCOORD_0":28
					},
					"indices":7,
					"material":8
				}
			]
		}
	],
	"textures":[
		{
			"sampler":0,
			"source":0
		},
		{
			"sampler":0,
			"source":0
		},
		{
			"sampler":0,
			"source":0
		},
		{
			"sampler":0,
			"source":0
		},
		{
			"sampler":0,
			"source":0
		},
		{
			"sampler":0,
			"source":0
		},
		{
			"sampler":0,
			"source":0
		},
		{
			"sampler":0,
			"source":0
		},
		{
			"sampler":0,
			"source":0
		}
	],
	"images":[
		{
			"mimeType":"image/png",
			"name":"colormap",
			"uri":"colormap.png"
		}
	],
	"accessors":[
		{
			"bufferView":0,
			"componentType":5126,
			"count":96,
			"max":[
				100,
				50,
				0
			],
			"min":[
				-100,
				-50,
				-40
			],
			"type":"VEC3"
		},
		{
			"bufferView":1,
			"componentType":5126,
			"count":96,
			"type":"VEC3"
		},
		{
			"bufferView":2,
			"componentType":5126,
			"count":96,
			"type":"VEC2"
		},
		{
			"bufferView":3,
			"componentType":5123,
			"count":276,
			"type":"SCALAR"
		},
		{
			"bufferView":4,
			"componentType":5126,
			"count":116,
			"max":[
				-76.55859375,
				50,
				99.99998474121094
			],
			"min":[
				-91.55859375,
				-50,
				-1.52587890625e-05
			],
			"type":"VEC3"
		},
		{
			"bufferView":5,
			"componentType":5126,
			"count":116,
			"type":"VEC3"
		},
		{
			"bufferView":6,
			"componentType":5126,
			"count":116,
			"type":"VEC2"
		},
		{
			"bufferView":7,
			"componentType":5123,
			"count":228,
			"type":"SCALAR"
		},
		{
			"bufferView":8,
			"componentType":5126,
			"count":116,
			"max":[
				92.76971435546875,
				50,
				99.99998474121094
			],
			"min":[
				77.76971435546875,
				-50,
				-1.52587890625e-05
			],
			"type":"VEC3"
		},
		{
			"bufferView":9,
			"componentType":5126,
			"count":116,
			"type":"VEC3"
		},
		{
			"bufferView":10,
			"componentType":5126,
			"count":116,
			"type":"VEC2"
		},
		{
			"bufferView":11,
			"componentType":5126,
			"count":96,
			"max":[
				100,
				50,
				0
			],
			"min":[
				-100,
				-50,
				-40
			],
			"type":"VEC3"
		},
		{
			"bufferView":12,
			"componentType":5126,
			"count":96,
			"type":"VEC3"
		},
		{
			"bufferView":13,
			"componentType":5126,
			"count":96,
			"type":"VEC2"
		},
		{
			"bufferView":14,
			"componentType":5126,
			"count":116,
			"max":[
				-76.55859375,
				50,
				99.99998474121094
			],
			"min":[
				-91.55859375,
				-50,
				-1.52587890625e-05
			],
			"type":"VEC3"
		},
		{
			"bufferView":15,
			"componentType":5126,
			"count":116,
			"type":"VEC3"
		},
		{
			"bufferView":16,
			"componentType":5126,
			"count":116,
			"type":"VEC2"
		},
		{
			"bufferView":17,
			"componentType":5126,
			"count":116,
			"max":[
				92.76971435546875,
				50,
				99.99998474121094
			],
			"min":[
				77.76971435546875,
				-50,
				-1.52587890625e-05
			],
			"type":"VEC3"
		},
		{
			"bufferView":18,
			"componentType":5126,
			"count":116,
			"type":"VEC3"
		},
		{
			"bufferView":19,
			"componentType":5126,
			"count":116,
			"type":"VEC2"
		},
		{
			"bufferView":20,
			"componentType":5126,
			"count":96,
			"max":[
				100,
				50,
				0
			],
			"min":[
				-100,
				-50,
				-40
			],
			"type":"VEC3"
		},
		{
			"bufferView":21,
			"componentType":5126,
			"count":96,
			"type":"VEC3"
		},
		{
			"bufferView":22,
			"componentType":5126,
			"count":96,
			"type":"VEC2"
		},
		{
			"bufferView":23,
			"componentType":5126,
			"count":116,
			"max":[
				-76.55859375,
				50,
				99.99998474121094
			],
			"min":[
				-91.55859375,
				-50,
				-1.52587890625e-05
			],
			"type":"VEC3"
		},
		{
			"bufferView":24,
			"componentType":5126,
			"count":116,
			"type":"VEC3"
		},
		{
			"bufferView":25,
			"componentType":5126,
			"count":116,
			"type":"VEC2"
		},
		{
			"bufferView":26,
			"componentType":5126,
			"count":116,
			"max":[
				92.76971435546875,
				50,
				99.99998474121094
			],
			"min":[
				77.76971435546875,
				-50,
				-1.52587890625e-05
			],
			"type":"VEC3"
		},
		{
			"bufferView":27,
			"componentType":5126,
			"count":116,
			"type":"VEC3"
		},
		{
			"bufferView":28,
			"componentType":5126,
			"count":116,
			"type":"VEC2"
		}
	],
	"bufferViews":[
		{
			"buffer":0,
			"byteLength":1152,
			"byteOffset":0,
			"target":34962
		},
		{
			"buffer":0,
			"byteLength":1152,
			"byteOffset":1152,
			"target":34962
		},
		{
			"buffer":0,
			"byteLength":768,
			"byteOffset":2304,
			"target":34962
		},
		{
			"buffer":0,
			"byteLength":552,
			"byteOffset":3072,
			"target":34963
		},
		{
			"buffer":0,
			"byteLength":1392,
			"byteOffset":3624,
			"target":34962
		},
		{
			"buffer":0,
			"byteLength":1392,
			"byteOffset":5016,
			"target":34962
		},
		{
			"buffer":0,
			"byteLength":928,
			"byteOffset":6408,
			"target":34962
		},
		{
			"buffer":0,
			"byteLength":456,
			"byteOffset":7336,
			"target":34963
		},
		{
			"buffer":0,
			"byteLength":1392,
			"byteOffset":7792,
			"target":34962
		},
		{
			"buffer":0,
			"byteLength":1392,
			"byteOffset":9184,
			"target":34962
		},
		{
			"buffer":0,
			"byteLength":928,
			"byteOffset":10576,
			"target":34962
		},
		{
			"buffer":0,
			"byteLength":1152,
			"byteOffset":11504,
			"target":34962
		},
		{
			"buffer":0,
			"byteLength":1152,
			"byteOffset":12656,
			"target":34962
		},
		{
			"buffer":0,
			"byteLength":768,
			"byteOffset":13808,
			"target":34962
		},
		{
			"buffer":0,
			"byteLength":1392,
			"byteOffset":14576,
			"target":34962
		},
		{
			"buffer":0,
			"byteLength":1392,
			"byteOffset":15968,
			"target":34962
		},
		{
			"buffer":0,
			"byteLength":928,
			"byteOffset":17360,
			"target":34962
		},
		{
			"buffer":0,
			"byteLength":1392,
			"byteOffset":18288,
			"target":34962
		},
		{
			"buffer":0,
			"byteLength":1392,
			"byteOffset":19680,
			"target":34962
		},
		{
			"buffer":0,
			"byteLength":928,
			"byteOffset":21072,
			"target":34962
		},
		{
			"buffer":0,
			"byteLength":1152,
			"byteOffset":22000,
			"target":34962
		},
		{
			"buffer":0,
			"byteLength":1152,
			"byteOffset":23152,
			"target":34962
		},
		{
			"buffer":0,
			"byteLength":768,
			"byteOffset":24304,
			"target":34962
		},
		{
			"buffer":0,
			"byteLength":1392,
			"byteOffset":25072,
			"target":34962
		},
		{
			"buffer":0,
			"byteLength":1392,
			"byteOffset":26464,
			"target":34962
		},
		{
			"buffer":0,
			"byteLength":928,
			"byteOffset":27856,
			"target":34962
		},
		{
			"buffer":0,
			"byteLength":1392,
			"byteOffset":28784,
			"target":34962
		},
		{
			"buffer":0,
			"byteLength":1392,
			"byteOffset":30176,
			"target":34962
		},
		{
			"buffer":0,
			"byteLength":928,
			"byteOffset":31568,
			"target":34962
		}
	],
	"samplers":[
		{
			"magFilter":9729,
			"minFilter":9987
		}
	],
	"buffers":[
		{
			"byteLength":32496,
			"uri":"Conver.bin"
		}
	]
}
